<svg width="87" height="87" viewBox="0 0 87 87" fill="none" xmlns="http://www.w3.org/2000/svg">
<rect width="87" height="87" fill="#1E1E1E"/>
<g clip-path="url(#clip0_0_1)">
<rect width="1920" height="1068" transform="translate(-1708 -284)" fill="#F9F9F9"/>
<g filter="url(#filter0_dddd_0_1)">
<rect x="-297.333" y="-56" width="418.667" height="202.667" rx="8.10733" fill="white"/>
<rect x="-296.996" y="-55.6622" width="417.991" height="201.991" rx="7.76952" stroke="#C7C7C7" stroke-width="0.675611"/>
</g>
<rect width="86.6667" height="86.6667" rx="16.7068" fill="#F3E8FF"/>
<path d="M39.1109 53.7775H48.8887C50.2331 53.7775 51.3331 52.6775 51.3331 51.3331V39.1108H55.2198C57.3953 39.1108 58.4953 36.4708 56.9553 34.9308L45.7353 23.7108C45.5092 23.4842 45.2406 23.3044 44.9449 23.1818C44.6492 23.0591 44.3321 22.996 44.012 22.996C43.6919 22.996 43.3749 23.0591 43.0791 23.1818C42.7834 23.3044 42.5148 23.4842 42.2887 23.7108L31.0687 34.9308C29.5287 36.4708 30.6042 39.1108 32.7798 39.1108H36.6664V51.3331C36.6664 52.6775 37.7664 53.7775 39.1109 53.7775ZM29.3331 58.6664H58.6664C60.0109 58.6664 61.1109 59.7664 61.1109 61.1108C61.1109 62.4553 60.0109 63.5553 58.6664 63.5553H29.3331C27.9887 63.5553 26.8887 62.4553 26.8887 61.1108C26.8887 59.7664 27.9887 58.6664 29.3331 58.6664Z" fill="#7E22CE"/>
</g>
<defs>
<filter id="filter0_dddd_0_1" x="-305.333" y="-57.3333" width="434.667" height="230.667" filterUnits="userSpaceOnUse" color-interpolation-filters="sRGB">
<feFlood flood-opacity="0" result="BackgroundImageFix"/>
<feColorMatrix in="SourceAlpha" type="matrix" values="0 0 0 0 0 0 0 0 0 0 0 0 0 0 0 0 0 0 127 0" result="hardAlpha"/>
<feOffset dy="1.33333"/>
<feGaussianBlur stdDeviation="1.33333"/>
<feColorMatrix type="matrix" values="0 0 0 0 0 0 0 0 0 0 0 0 0 0 0 0 0 0 0.06 0"/>
<feBlend mode="normal" in2="BackgroundImageFix" result="effect1_dropShadow_0_1"/>
<feColorMatrix in="SourceAlpha" type="matrix" values="0 0 0 0 0 0 0 0 0 0 0 0 0 0 0 0 0 0 127 0" result="hardAlpha"/>
<feOffset dy="5.33333"/>
<feGaussianBlur stdDeviation="2.66667"/>
<feColorMatrix type="matrix" values="0 0 0 0 0 0 0 0 0 0 0 0 0 0 0 0 0 0 0.05 0"/>
<feBlend mode="normal" in2="effect1_dropShadow_0_1" result="effect2_dropShadow_0_1"/>
<feColorMatrix in="SourceAlpha" type="matrix" values="0 0 0 0 0 0 0 0 0 0 0 0 0 0 0 0 0 0 127 0" result="hardAlpha"/>
<feOffset dy="10.6667"/>
<feGaussianBlur stdDeviation="3.33333"/>
<feColorMatrix type="matrix" values="0 0 0 0 0 0 0 0 0 0 0 0 0 0 0 0 0 0 0.03 0"/>
<feBlend mode="normal" in2="effect2_dropShadow_0_1" result="effect3_dropShadow_0_1"/>
<feColorMatrix in="SourceAlpha" type="matrix" values="0 0 0 0 0 0 0 0 0 0 0 0 0 0 0 0 0 0 127 0" result="hardAlpha"/>
<feOffset dy="18.6667"/>
<feGaussianBlur stdDeviation="4"/>
<feColorMatrix type="matrix" values="0 0 0 0 0 0 0 0 0 0 0 0 0 0 0 0 0 0 0.01 0"/>
<feBlend mode="normal" in2="effect3_dropShadow_0_1" result="effect4_dropShadow_0_1"/>
<feBlend mode="normal" in="SourceGraphic" in2="effect4_dropShadow_0_1" result="shape"/>
</filter>
<clipPath id="clip0_0_1">
<rect width="1920" height="1068" fill="white" transform="translate(-1708 -284)"/>
</clipPath>
</defs>
</svg>
